<?xml version="1.0" standalone="no"?>
<!DOCTYPE svg PUBLIC "-//W3C//DTD SVG 20010904//EN"
 "http://www.w3.org/TR/2001/REC-SVG-20010904/DTD/svg10.dtd">
<svg version="1.0" xmlns="http://www.w3.org/2000/svg"
 width="2102.000000pt" height="309.000000pt" viewBox="0 0 2102.000000 309.000000"
 preserveAspectRatio="xMidYMid meet">

<g transform="translate(0.000000,309.000000) scale(0.100000,-0.100000)"
fill="#000000" stroke="none">
<path d="M120 2875 c0 -28 51 -138 96 -208 81 -125 201 -225 346 -286 l63 -26
440 -2 c242 -2 450 -5 463 -8 l22 -5 0 -1070 0 -1070 265 0 265 0 0 1069 0
1069 23 6 c12 3 214 6 449 6 l428 0 66 25 c195 73 336 203 425 390 20 44 40
90 44 103 l6 22 -1700 0 c-1520 0 -1701 -2 -1701 -15z"/>
<path d="M4810 2885 c0 -20 56 -145 86 -192 86 -136 185 -225 324 -292 l75
-36 1052 -3 1052 -2 65 24 c126 48 247 144 332 263 44 61 95 164 108 216 l6
27 -1550 0 c-852 0 -1550 -2 -1550 -5z"/>
<path d="M9430 2095 l0 -795 1208 -2 1207 -3 3 -283 2 -282 -960 0 -960 0 -62
-24 c-183 -68 -338 -173 -453 -306 -51 -58 -135 -185 -135 -203 0 -4 693 -7
1540 -7 l1540 0 0 815 0 815 -1207 2 -1208 3 -3 268 -2 267 935 0 935 0 67 25
c234 89 438 284 492 473 l10 32 -1475 0 -1474 0 0 -795z"/>
<path d="M13870 1540 l0 -1350 1205 0 1206 0 62 31 c196 99 325 256 392 477
l6 22 -1175 0 -1176 0 0 1085 0 1085 -260 0 -260 0 0 -1350z"/>
<path d="M17790 2878 c0 -26 67 -165 107 -224 91 -134 268 -263 403 -293 62
-14 2018 -14 2080 0 135 30 312 159 403 293 40 59 107 198 107 224 0 9 -317
12 -1550 12 -1233 0 -1550 -3 -1550 -12z"/>
<path d="M4814 1803 c13 -58 97 -211 151 -276 67 -81 153 -147 255 -196 l75
-36 1066 0 1066 0 95 47 c113 57 215 146 284 249 48 72 103 191 104 222 0 16
-80 17 -1551 17 l-1551 0 6 -27z"/>
<path d="M17870 1005 l0 -815 260 0 260 0 0 545 0 545 955 0 955 0 0 -545 0
-545 260 0 260 0 0 815 0 815 -1475 0 -1475 0 0 -815z"/>
<path d="M4815 703 c13 -56 86 -193 135 -255 89 -111 204 -193 336 -238 55
-19 91 -20 1076 -20 1006 0 1019 0 1081 21 127 42 249 131 332 241 48 63 118
198 131 251 l6 27 -1552 0 -1552 0 7 -27z"/>
</g>
</svg>
